<svg width="127" height="266" viewBox="0 0 127 266" fill="none" xmlns="http://www.w3.org/2000/svg">
<path d="M48.2181 66.6861C0.0494297 118.763 -12.7498 200.664 17.2148 264.995" stroke="#543617" stroke-width="2.2686" stroke-miterlimit="10"/>
<path d="M41.123 77.0908C63.0595 51.2988 93.3057 32.6017 126.105 24.1334C119.468 18.5701 112.372 13.5878 104.644 9.5737C88.2529 1.05263 68.6932 -2.78537 50.9116 2.2498C33.1301 7.28498 17.8837 22.3025 15.9823 40.2953C14.2218 57.1614 26.3344 75.0134 41.123 77.0908ZM87.3022 9.3096C88.5874 9.46805 89.767 10.1899 90.5592 11.2462C92.5663 13.9223 91.9501 17.4082 90.2775 19.9962C89.7494 20.8236 89.0804 21.5807 88.3409 22.2145C85.524 24.6088 81.1755 22.6018 81.1227 18.9046C81.1051 17.7426 81.1051 16.5631 81.2635 15.4187C81.6685 12.2673 83.7987 8.88707 87.3022 9.3096ZM63.8517 11.1406C66.4221 10.0314 70.0488 11.299 70.5242 14.0631C70.9291 16.3694 69.1509 18.4116 67.6721 20.225C66.2108 22.056 64.908 24.6616 66.2284 26.5982C66.6862 27.2672 67.3904 27.725 67.8481 28.394C68.9397 29.9081 68.5171 32.1088 67.3904 33.5876C66.246 35.0665 63.4291 37.1791 61.5101 34.2566C58.3412 29.4151 57.4081 23.2004 58.9926 17.637C59.7848 14.9434 61.2989 12.2497 63.8517 11.1406ZM43.6053 51.51C38.4997 46.7917 35.3835 39.9608 35.1899 33.0242C35.1195 30.3482 35.4716 27.5841 36.7744 25.2426C38.4117 22.3025 41.7215 20.137 45.2074 21.0877C46.475 21.4398 47.6194 22.2144 48.3412 23.306C50.7708 26.9855 47.0736 30.5947 47.8307 34.2214C48.1476 35.7531 49.2215 37.0031 49.8201 38.4467C50.9644 41.1932 50.313 44.4326 48.8342 47.0206C47.3553 49.6086 45.1194 51.6685 43.6053 51.51Z" fill="#5B6101"/>
</svg>
