<svg width="121" height="254" viewBox="0 0 121 254" fill="none" xmlns="http://www.w3.org/2000/svg">
<path d="M60.4366 55.1459C108.605 107.223 121.405 189.124 91.44 253.454" stroke="#543617" stroke-width="2.2686" stroke-miterlimit="10"/>
<path d="M100.472 12.7872C115.331 23.7906 124.257 43.2271 119.662 60.7446C115.067 78.2444 95.2251 91.2021 80.2076 85.3571C81.9505 100.691 71.8098 116.396 56.9859 121.325C42.1621 126.255 24.134 119.899 15.7186 106.783C7.25034 93.5965 8.69401 76.9064 9.18696 61.4136C9.59189 48.6848 8.50033 34.5476 1.29967 24.3716C-1.14749 20.9209 -0.038339 16.2202 3.78206 14.4069C17.6904 7.80479 32.2854 2.4527 47.6374 0.639334C65.9647 -1.56136 85.6125 1.78371 100.472 12.7872ZM50.7008 85.2162C48.6057 86.0085 47.0388 87.8395 44.9438 88.6493C42.391 89.6352 39.5565 88.9486 36.8452 88.7021C33.7466 88.4204 30.0319 89.0542 29.0636 92.3289C28.5706 93.9486 29.0636 95.7091 30.1375 97.0295C32.3734 99.7408 35.9121 100.216 39.1867 100.11C47.4789 99.8112 55.5775 96.0612 61.1584 89.9169C62.0915 89.7233 60.3662 87.7162 58.1479 86.343C55.9472 84.9698 53.1303 84.3008 50.7008 85.2162ZM32.5671 64.8114C30.1199 63.315 26.5988 65.0227 25.7009 67.734C24.803 70.4452 26.1763 73.5438 28.4298 75.3043C30.6833 77.0473 33.6586 77.6459 36.5107 77.6635C41.5459 77.6987 46.5635 76.0262 50.6127 73.0684C52.5846 71.6424 52.1268 68.5614 49.8029 67.822C47.1268 66.9769 43.7994 67.0826 40.9825 68.4206C40.1022 68.8431 39.2396 69.3713 38.2713 69.3713C35.7889 69.3713 34.715 66.1142 32.5671 64.8114ZM20.4545 35.287C19.0284 37.0828 19.8383 39.7588 21.0531 41.6954C25.0319 48.0334 33.0776 51.5545 40.4191 50.1637C44.4332 49.4066 44.9437 46.7834 43.993 45.2341C43.0424 43.6848 41.1938 42.963 39.4156 42.5933C37.6375 42.2236 35.7713 42.1003 34.134 41.3081C31.6164 40.0933 30.0495 37.5581 27.9192 35.7447C25.8066 33.949 22.1798 33.1039 20.4545 35.287ZM88.6935 47.0123C86.6512 49.1778 86.1054 52.4348 86.5808 55.3749C87.0561 58.315 88.4118 61.0262 89.873 61.4312C96.3167 58.8256 101.633 53.5439 104.292 47.1179C105.313 44.6355 105.964 41.9243 105.56 39.2658C105.067 35.9384 102.743 32.7342 99.1511 32.3821C97.8483 32.2588 96.5103 32.5757 95.4364 33.3504C91.8624 35.9208 94.0455 40.6215 92.0385 43.7377C91.1934 45.0757 89.7674 45.8679 88.6935 47.0123ZM77.5316 30.111C76.8802 30.5687 76.0527 30.7624 75.3837 31.2025C73.8344 32.2236 73.4295 34.4419 73.9753 36.2201C74.521 37.9982 76.4048 40.9912 79.2393 38.9313C83.9048 35.5335 86.9857 30.0406 87.4611 24.2836C87.6899 21.5019 87.2322 18.4385 85.2252 16.4843C83.2182 14.5301 79.3625 14.4421 77.9541 16.854C76.7745 18.8787 77.7076 21.3962 78.4295 23.6321C79.1513 25.868 79.4506 28.7554 77.5316 30.111ZM60.2253 7.15337C57.3908 8.94913 56.7394 12.4174 57.3908 15.4456C57.6021 16.4139 57.9542 17.347 58.412 18.192C60.1901 21.4314 64.9788 21.0793 66.3344 17.6463C66.757 16.5547 67.1795 15.4632 67.4436 14.3364C68.1654 11.2379 67.3732 7.32944 63.9401 6.48438C62.6901 6.18508 61.3345 6.44915 60.2253 7.15337Z" fill="#5B6101"/>
<path d="M75.9119 76.1669C68.6761 51.2199 51.7572 29.213 29.4862 15.8152" stroke="#54301A" stroke-width="1.1343" stroke-miterlimit="10"/>
</svg>
