<svg width="131" height="237" viewBox="0 0 131 237" fill="none" xmlns="http://www.w3.org/2000/svg">
<path d="M82.7377 37.5541C130.906 89.6312 143.706 171.532 113.741 235.863" stroke="#54301A" stroke-width="2.2686" stroke-miterlimit="10"/>
<path d="M3.58341 32.1843C9.85098 14.7901 25.9072 0.65285 44.0057 0.0190509C62.0865 -0.614748 80.2026 14.6668 78.9174 30.7407C93.1075 24.6668 111.065 29.878 120.026 42.6596C129.005 55.4412 128.09 74.5432 117.949 86.3741C107.738 98.2754 91.3469 101.691 76.3646 105.67C64.0407 108.944 50.8366 114.032 43.143 123.856C40.5374 127.184 35.7135 127.483 32.8966 124.349C22.5621 112.923 13.2488 100.476 7.10452 86.2861C-0.236985 69.3672 -2.68415 49.5786 3.58341 32.1843ZM87.2624 59.0503C88.618 60.8285 90.8363 61.8144 92.2096 63.575C93.8821 65.7228 94.0406 68.6454 94.5863 71.3214C95.2025 74.3671 96.875 77.7474 100.29 77.7298C101.981 77.7298 103.53 76.7615 104.481 75.353C106.435 72.4305 105.871 68.9094 104.815 65.7933C102.157 57.9412 96.2236 51.2511 88.7413 47.6772C88.2835 46.8321 86.8575 49.068 86.1885 51.5856C85.5195 54.1032 85.6955 56.9905 87.2624 59.0503ZM72.9315 82.272C72.2097 85.0361 74.8505 87.9234 77.7026 87.9938C80.5547 88.0642 83.1251 85.8635 84.1639 83.2051C85.185 80.5291 84.9209 77.5185 84.111 74.7897C82.7026 69.9658 79.6569 65.6348 75.6604 62.589C73.7238 61.1102 70.9069 62.4306 70.8717 64.8778C70.8189 67.677 71.8928 70.8284 73.9879 73.1524C74.6393 73.8742 75.3963 74.5608 75.678 75.4939C76.3822 77.8882 73.5653 79.8601 72.9315 82.272ZM48.143 102.36C50.2732 103.205 52.5972 101.673 54.1112 99.948C59.0408 94.3142 60.0971 85.5995 56.664 78.9622C54.7802 75.3354 52.1218 75.5995 50.907 76.9552C49.6922 78.3108 49.5338 80.3002 49.6923 82.1136C49.8507 83.9269 50.2732 85.7403 49.9916 87.5361C49.5514 90.3001 47.562 92.5184 46.4528 95.0888C45.3261 97.624 45.5373 101.339 48.143 102.36ZM39.7628 33.6456C42.4212 34.9836 45.6958 34.5611 48.3894 33.2583C51.0655 31.9555 53.2838 29.878 53.2486 28.3639C48.9 22.9414 42.3155 19.3499 35.3966 18.6633C32.7205 18.3992 29.9389 18.5576 27.5093 19.702C24.4635 21.1281 22.0692 24.2794 22.7734 27.8181C23.0199 29.1034 23.7241 30.3005 24.7628 31.0928C28.2487 33.7688 32.1219 30.3534 35.6959 31.3569C37.1747 31.797 38.3543 32.9414 39.7628 33.6456ZM26.7875 49.1736C27.4213 49.6666 27.8438 50.406 28.46 50.9166C29.886 52.1138 32.1219 51.8497 33.6712 50.8286C35.2205 49.7898 37.5444 47.1314 34.7628 45.0187C30.1677 41.5152 24.0234 40.142 18.372 41.3392C15.6432 41.9202 12.8439 43.2406 11.5411 45.723C10.2559 48.2054 11.277 51.9201 13.9883 52.5891C16.2594 53.1525 18.4249 51.5152 20.3439 50.1772C22.2453 48.8392 24.9389 47.73 26.7875 49.1736ZM9.74534 72.3601C12.2629 74.5608 15.784 74.1735 18.4953 72.6946C19.358 72.2193 20.1502 71.6207 20.8368 70.9165C23.4248 68.2756 21.7171 63.8038 18.0375 63.4869C16.8756 63.3813 15.7136 63.3109 14.5516 63.3813C11.3826 63.5926 7.86155 65.4588 8.03761 68.9799C8.12563 70.2827 8.77704 71.4974 9.74534 72.3601Z" fill="#98A763"/>
<path d="M71.3646 37.5011C49.5514 51.6031 33.3367 74.1382 26.8931 99.3141" stroke="#54301A" stroke-width="1.1343" stroke-miterlimit="10"/>
</svg>
