<svg width="131" height="237" viewBox="0 0 131 237" fill="none" xmlns="http://www.w3.org/2000/svg">
<path d="M48.2181 37.554C0.0493895 89.6311 -12.7498 171.532 17.2148 235.863" stroke="#54301A" stroke-width="2.2686" stroke-miterlimit="10"/>
<path d="M127.373 32.1843C121.105 14.7901 105.049 0.65285 86.9503 0.0190509C68.8694 -0.614748 50.7534 14.6668 52.0386 30.7407C37.8485 24.6668 19.8909 29.878 10.912 42.6596C1.93323 55.4412 2.84876 74.5432 12.9895 86.3741C23.2007 98.2754 39.5915 101.691 54.5738 105.67C66.8976 108.944 80.1017 114.032 87.7953 123.856C90.401 127.184 95.2249 127.483 98.0418 124.349C108.376 112.923 117.69 100.476 123.834 86.2861C131.193 69.3496 133.64 49.561 127.373 32.1843ZM43.6936 59.0503C42.3379 60.8285 40.1196 61.8144 38.7464 63.5749C37.0738 65.7228 36.9154 68.6454 36.3697 71.3214C35.7535 74.3671 34.0809 77.7474 30.6654 77.7298C28.9753 77.7298 27.4261 76.7615 26.4754 75.353C24.5212 72.4305 25.0845 68.9094 26.1409 65.7933C28.7993 57.9412 34.7323 51.2511 42.2146 47.6772C42.6724 46.8321 44.0985 49.068 44.7675 51.5856C45.4365 54.1032 45.2605 56.9729 43.6936 59.0503ZM58.0244 82.272C58.7462 85.0361 56.1054 87.9234 53.2533 87.9938C50.4012 88.0642 47.8308 85.8635 46.7921 83.2051C45.771 80.5291 46.0351 77.5185 46.8449 74.7896C48.2533 69.9657 51.2991 65.6348 55.2956 62.589C57.2322 61.1102 60.0491 62.4306 60.0843 64.8778C60.1371 67.677 59.0631 70.8284 56.9681 73.1524C56.3167 73.8742 55.5597 74.5608 55.278 75.4939C54.5737 77.8882 57.3906 79.8424 58.0244 82.272ZM82.813 102.36C80.6827 103.205 78.3588 101.673 76.8447 99.948C71.9152 94.3142 70.8588 85.5995 74.2919 78.9622C76.1757 75.3354 78.8342 75.5995 80.0489 76.9552C81.2637 78.3108 81.4222 80.3002 81.2637 82.1136C81.1053 83.9269 80.6827 85.7403 80.9644 87.5361C81.4045 90.3001 83.394 92.5184 84.5031 95.0888C85.6299 97.624 85.4186 101.339 82.813 102.36ZM91.1932 33.6456C88.5348 34.9836 85.2602 34.5611 82.5665 33.2582C79.8905 31.9554 77.6722 29.878 77.7074 28.3639C82.0559 22.9414 88.6404 19.3499 95.5594 18.6633C98.2354 18.3992 101.017 18.5576 103.447 19.702C106.492 21.1281 108.887 24.2794 108.183 27.8181C107.936 29.1034 107.232 30.3005 106.193 31.0928C102.707 33.7688 98.834 30.3533 95.2601 31.3568C93.7812 31.7794 92.6016 32.9413 91.1932 33.6456ZM104.168 49.1736C103.535 49.6666 103.112 50.406 102.496 50.9166C101.07 52.1138 98.834 51.8497 97.2847 50.8286C95.7354 49.7898 93.4115 47.1314 96.1932 45.0187C100.788 41.5152 106.933 40.142 112.584 41.3392C115.313 41.9202 118.112 43.2406 119.415 45.723C120.7 48.2053 119.679 51.9201 116.968 52.5891C114.697 53.1525 112.531 51.5152 110.612 50.1771C108.711 48.8391 106.017 47.73 104.168 49.1736ZM121.211 72.3425C118.693 74.5432 115.172 74.1559 112.461 72.677C111.598 72.2016 110.806 71.6031 110.119 70.8988C107.531 68.258 109.239 63.7862 112.918 63.4693C114.08 63.3637 115.242 63.2933 116.404 63.3637C119.573 63.575 123.094 65.4411 122.918 68.9622C122.83 70.265 122.179 71.4974 121.211 72.3425Z" fill="#98A763"/>
<path d="M59.5912 37.4835C81.4044 51.5855 97.6191 74.1205 104.063 99.2964" stroke="#54301A" stroke-width="1.1343" stroke-miterlimit="10"/>
</svg>
