<svg width="35" height="241" viewBox="0 0 35 241" fill="none" xmlns="http://www.w3.org/2000/svg">
<path d="M28.9238 240.281C35.9303 225.244 34.7415 206.564 31.6682 189.668C28.6076 172.771 23.8523 155.989 24.3962 138.688C24.8894 123.081 29.6953 107.5 27.2418 92.1718C25.1423 79.0062 17.8829 67.7377 15.7582 54.5721C14.0888 44.2647 15.6824 33.5526 14.6453 23.1315C13.6082 12.7103 8.49882 1.42912 0 0C7.82853 11.9388 8.34707 28.7341 6.76618 43.9359C5.1853 59.1377 1.89706 74.3647 3.44 89.5665C4.91971 104.111 10.7121 117.428 13.7726 131.605C16.7194 145.289 17.0735 159.555 18.2244 173.644C20.1341 197.066 24.3076 220.249 28.9238 240.281Z" fill="#98A763"/>
</svg>
