<svg width="56" height="220" viewBox="0 0 56 220" fill="none" xmlns="http://www.w3.org/2000/svg">
<path d="M1.68738 218.781C-2.32174 205.616 1.42178 190.895 6.55649 178.311C11.6912 165.727 18.3056 153.662 20.405 139.864C23.7818 117.706 15.283 92.7029 24.9327 73.3909C28.4359 66.3844 34.0259 61.0094 36.9094 53.5982C40.5391 44.2774 39.2744 33.4135 40.0965 23.1694C40.9059 12.9253 45.4715 1.31529 53.9703 0C44.5103 21.0068 60.4456 47.8312 53.8312 70.3556C50.9097 80.2962 44.0424 87.6821 39.0088 96.32C32.7359 107.095 29.258 120.21 29.2074 133.363C29.1694 144.025 31.2815 154.889 29.0303 165.196C26.2226 178.058 17.2812 187.354 10.3379 197.711C3.38206 208.082 -1.84115 222.904 1.68738 218.781Z" fill="#5B6101"/>
</svg>
