<svg width="35" height="241" viewBox="0 0 35 241" fill="none" xmlns="http://www.w3.org/2000/svg">
<path d="M5.27135 240.281C-1.87424 225.244 -0.647464 206.564 2.47636 189.668C5.60018 172.771 10.444 155.989 9.90018 138.688C9.39429 123.081 4.49987 107.5 7.00399 92.1718C9.15399 79.0062 16.5399 67.7377 18.7152 54.5721C20.4099 44.2647 18.7911 33.5526 19.8534 23.1315C20.9158 12.7103 26.1137 1.42912 34.7769 0C26.784 11.9388 26.2655 28.7341 27.8716 43.9359C29.4778 59.1377 32.8419 74.3647 31.261 89.5665C29.756 104.111 23.8499 117.428 20.7387 131.605C17.7287 145.289 17.3746 159.555 16.1984 173.644C14.2381 197.066 9.9887 220.249 5.27135 240.281Z" fill="#98A763"/>
</svg>
