<svg width="55" height="220" viewBox="0 0 55 220" fill="none" xmlns="http://www.w3.org/2000/svg">
<path d="M52.7726 218.781C56.7058 205.616 53.0382 190.895 47.992 178.311C42.9585 165.727 36.4705 153.662 34.4091 139.864C31.1082 117.706 39.4299 92.7029 29.9699 73.3909C26.5299 66.3844 21.0411 61.0094 18.2208 53.5982C14.667 44.2774 15.8938 33.4135 15.097 23.1694C14.3002 12.9253 9.82318 1.31529 1.48877 0C10.7717 21.0068 -4.86005 47.8312 1.62789 70.3556C4.48612 80.2962 11.227 87.6821 16.172 96.32C22.3311 107.095 25.7332 120.21 25.7838 133.363C25.8217 144.025 23.7476 154.889 25.9608 165.196C28.7179 178.058 37.4823 187.354 44.2991 197.711C51.1285 208.082 56.2379 222.904 52.7726 218.781Z" fill="#5B6101"/>
</svg>
