<svg width="194" height="286" viewBox="0 0 194 286" fill="none" xmlns="http://www.w3.org/2000/svg">
<path d="M93.1578 126.31C96.9959 106.972 115.451 92.3956 135.618 89.3198C155.785 86.2306 176.847 93.3317 193.39 105.314C183.654 120.8 167.219 132.141 148.817 136.113C130.416 140.084 110.276 136.607 93.1578 126.31Z" fill="#B4BE2A"/>
<path d="M86.8056 204.891C82.9407 185.406 94.3748 165.172 111.787 155.102C129.199 145.032 151.331 144.163 171.164 149.486C168.115 167.459 157.309 183.948 141.863 194.219C126.43 204.503 106.531 208.435 86.8056 204.891Z" fill="#B4BE2A"/>
<path d="M86.3241 202.39C89.4935 182.932 77.3507 162.618 59.5777 152.441C41.818 142.251 19.6452 141.248 0 146.45C3.69101 164.45 15.0716 181.006 30.8787 191.384C46.6859 201.748 66.7323 205.8 86.3241 202.39Z" fill="#B4BE2A"/>
<path d="M91.3657 128.503C100.754 111.118 95.9661 88.3702 82.5661 73.4591C69.1662 58.5479 48.5982 50.9787 28.3645 50.0024C25.9306 68.0563 31.213 87.0462 42.714 101.556C54.215 116.053 71.774 125.869 91.3657 128.503Z" fill="#B4BE2A"/>
<path d="M93.4653 285.398C84.6256 217.729 78.153 145.26 101.957 81.1887C107.333 66.7189 114.18 52.9846 122.285 40.4406" stroke="#5B6101" stroke-width="1.8941" stroke-miterlimit="10"/>
<path d="M129.292 168.583C110.516 173.17 94.4149 186.449 85.8828 204.65C81.2557 184.992 67.3476 167.393 48.8792 157.804" stroke="#5B6101" stroke-width="0.9533" stroke-miterlimit="10"/>
<path d="M138.841 114.114C120.987 109.326 100.901 114.956 89.7208 128.022C90.0418 109.112 83.5692 89.9616 71.667 74.6226" stroke="#5B6101" stroke-width="0.9533" stroke-miterlimit="10"/>
<path d="M101.81 83.5425C90.2959 66.9731 92.3955 43.8641 104.11 27.8831C115.825 11.9022 135.604 2.63452 155.851 0C160.452 17.8131 157.389 37.2177 147.547 52.637C137.704 68.0563 121.215 79.2898 101.81 83.5425Z" fill="#B4BE2A"/>
</svg>
