<svg width="192" height="310" viewBox="0 0 192 310" fill="none" xmlns="http://www.w3.org/2000/svg">
<path d="M32.4847 309.94C15.6824 245.98 -1.22055 179.225 12.2187 114.485C16.35 94.5713 23.7057 74.6454 37.7747 59.9718C51.8438 45.2856 73.7345 36.8718 93.1314 42.9554C109.782 48.1825 122.05 63.108 128.033 79.5072C134.016 95.9064 134.558 113.741 134.155 131.199C132.756 191.669 120.728 251.875 98.7741 308.239C75.8757 305.846 52.5365 307.761 32.4847 309.94Z" fill="#98A763"/>
<mask id="mask0_1_109" style="mask-type:luminance" maskUnits="userSpaceOnUse" x="7" y="40" width="128" height="270">
<path d="M32.4847 309.94C15.6824 245.98 -1.22055 179.225 12.2187 114.485C16.35 94.5713 23.7057 74.6454 37.7747 59.9718C51.8438 45.2856 73.7345 36.8718 93.1314 42.9554C109.782 48.1825 122.05 63.108 128.033 79.5072C134.016 95.9064 134.558 113.741 134.155 131.199C132.756 191.669 120.728 251.875 98.7741 308.239C75.8757 305.846 52.5365 307.761 32.4847 309.94Z" fill="white"/>
</mask>
<g mask="url(#mask0_1_109)">
<path d="M75.9386 18.4322C37.5227 56.1931 21.1991 112.028 20.8842 165.886C20.5694 219.744 34.5754 272.557 49.2112 324.386" stroke="#C1CC9B" stroke-width="3" stroke-miterlimit="10"/>
</g>
<mask id="mask1_1_109" style="mask-type:luminance" maskUnits="userSpaceOnUse" x="7" y="40" width="128" height="270">
<path d="M32.4847 309.94C15.6824 245.98 -1.22055 179.225 12.2187 114.485C16.35 94.5713 23.7057 74.6454 37.7747 59.9718C51.8438 45.2856 73.7345 36.8718 93.1314 42.9554C109.782 48.1825 122.05 63.108 128.033 79.5072C134.016 95.9064 134.558 113.741 134.155 131.199C132.756 191.669 120.728 251.875 98.7741 308.239C75.8757 305.846 52.5365 307.761 32.4847 309.94Z" fill="white"/>
</mask>
<g mask="url(#mask1_1_109)">
<path d="M102.49 32.0478C124.456 133.151 115.929 240.665 78.2939 337.045" stroke="#C1CC9B" stroke-width="3" stroke-miterlimit="10"/>
</g>
<mask id="mask2_1_109" style="mask-type:luminance" maskUnits="userSpaceOnUse" x="7" y="40" width="128" height="270">
<path d="M32.4847 309.94C15.6824 245.98 -1.22055 179.225 12.2187 114.485C16.35 94.5713 23.7057 74.6454 37.7747 59.9718C51.8438 45.2856 73.7345 36.8718 93.1314 42.9554C109.782 48.1825 122.05 63.108 128.033 79.5072C134.016 95.9064 134.558 113.741 134.155 131.199C132.756 191.669 120.728 251.875 98.7741 308.239C75.8757 305.846 52.5365 307.761 32.4847 309.94Z" fill="white"/>
</mask>
<g mask="url(#mask2_1_109)">
<path d="M65.3963 326.918C42.901 225.613 49.3246 118.062 93.6856 27.7023C87.8161 134.133 77.9161 240.337 65.3963 326.918Z" stroke="#C1CC9B" stroke-width="3" stroke-miterlimit="10"/>
</g>
<path d="M120.992 147.648C122.441 152.863 126.547 157.258 131.661 159.047C136.762 160.836 142.732 159.979 147.115 156.818C153.186 152.447 155.604 144.739 159.131 138.139C162.645 131.539 169.207 125.039 176.525 126.589C181.437 127.634 185.027 132.231 186.136 137.131C187.244 142.031 186.299 147.17 184.889 151.981C181.715 162.788 176.147 172.877 168.691 181.316C164.522 186.039 159.685 190.321 153.942 192.916C148.198 195.511 141.46 196.317 135.552 194.138C126.396 190.762 120.917 180.9 119.871 171.202C118.826 161.503 121.383 151.817 120.992 147.648Z" fill="#98A763"/>
<mask id="mask3_1_109" style="mask-type:luminance" maskUnits="userSpaceOnUse" x="119" y="126" width="68" height="70">
<path d="M120.992 147.648C122.441 152.863 126.547 157.258 131.661 159.047C136.762 160.836 142.732 159.979 147.115 156.818C153.186 152.447 155.604 144.739 159.131 138.139C162.645 131.539 169.207 125.039 176.525 126.589C181.437 127.634 185.027 132.231 186.136 137.131C187.244 142.031 186.299 147.17 184.889 151.981C181.715 162.788 176.147 172.877 168.691 181.316C164.522 186.039 159.685 190.321 153.942 192.916C148.198 195.511 141.46 196.317 135.552 194.138C126.396 190.762 120.917 180.9 119.871 171.202C118.826 161.503 121.383 151.817 120.992 147.648Z" fill="white"/>
</mask>
<g mask="url(#mask3_1_109)">
<path d="M180.631 122.18C174.85 135.078 168.804 148.215 158.93 158.342C149.067 168.468 134.495 175.144 120.728 171.932" stroke="#C1CC9B" stroke-width="3" stroke-miterlimit="10"/>
</g>
<mask id="mask4_1_109" style="mask-type:luminance" maskUnits="userSpaceOnUse" x="119" y="126" width="68" height="70">
<path d="M120.992 147.648C122.441 152.863 126.547 157.258 131.661 159.047C136.762 160.836 142.732 159.979 147.115 156.818C153.186 152.447 155.604 144.739 159.131 138.139C162.645 131.539 169.207 125.039 176.525 126.589C181.437 127.634 185.027 132.231 186.136 137.131C187.244 142.031 186.299 147.17 184.889 151.981C181.715 162.788 176.147 172.877 168.691 181.316C164.522 186.039 159.685 190.321 153.942 192.916C148.198 195.511 141.46 196.317 135.552 194.138C126.396 190.762 120.917 180.9 119.871 171.202C118.826 161.503 121.383 151.817 120.992 147.648Z" fill="white"/>
</mask>
<g mask="url(#mask4_1_109)">
<path d="M195.481 136.199C186.249 148.807 176.878 161.566 164.761 171.441C152.644 181.316 137.278 188.155 121.71 186.895" stroke="#C1CC9B" stroke-width="3" stroke-miterlimit="10"/>
</g>
<path d="M15.3297 84.961C17.8739 88.3365 20.4308 91.7121 22.975 95.0876" stroke="#54301A" stroke-width="3" stroke-miterlimit="10" stroke-linecap="round"/>
<path d="M57.3227 97.4178C58.6074 99.7228 59.8921 102.028 61.1769 104.333" stroke="#54301A" stroke-width="3" stroke-miterlimit="10" stroke-linecap="round"/>
<path d="M103.308 122.206C101.457 124.737 99.6179 127.256 97.7664 129.788" stroke="#54301A" stroke-width="3" stroke-miterlimit="10" stroke-linecap="round"/>
<path d="M130.338 86.2457C128.486 88.7774 126.648 91.2964 124.796 93.8281" stroke="#54301A" stroke-width="3" stroke-miterlimit="10" stroke-linecap="round"/>
<path d="M120.211 166.503C117.793 168.481 115.362 170.458 112.944 172.436" stroke="#54301A" stroke-width="3" stroke-miterlimit="10" stroke-linecap="round"/>
<path d="M190.216 140.091C187.798 142.068 185.367 144.046 182.949 146.023" stroke="#54301A" stroke-width="3" stroke-miterlimit="10" stroke-linecap="round"/>
<path d="M150.478 151.83C150.957 154.916 151.435 158.014 151.914 161.1" stroke="#54301A" stroke-width="3" stroke-miterlimit="10" stroke-linecap="round"/>
<path d="M37.5983 151.83C38.9334 153.052 40.2685 154.286 41.6036 155.508" stroke="#54301A" stroke-width="3" stroke-miterlimit="10" stroke-linecap="round"/>
<path d="M1.5 191.48C4.66144 194.427 7.83549 197.375 10.9969 200.322" stroke="#54301A" stroke-width="3" stroke-miterlimit="10" stroke-linecap="round"/>
<path d="M127.567 212.93C124.595 216.343 121.609 219.757 118.637 223.157" stroke="#54301A" stroke-width="3" stroke-miterlimit="10" stroke-linecap="round"/>
<path d="M8.75488 251.988C12.9114 254.104 17.0678 256.22 21.2243 258.336" stroke="#54301A" stroke-width="3" stroke-miterlimit="10" stroke-linecap="round"/>
<path d="M72.8402 194.931C71.0264 198.445 69.2253 201.959 67.4116 205.486" stroke="#54301A" stroke-width="3" stroke-miterlimit="10" stroke-linecap="round"/>
<path d="M59.7787 247.164C61.6051 250.162 63.4314 253.16 65.2577 256.157" stroke="#54301A" stroke-width="3" stroke-miterlimit="10" stroke-linecap="round"/>
<path d="M102.087 244.582C100.046 247.907 97.9931 251.245 95.9526 254.57" stroke="#54301A" stroke-width="3" stroke-miterlimit="10" stroke-linecap="round"/>
<path d="M75.1073 48.0565C68.268 44.2527 63.3054 37.2497 61.9829 29.5413C61.5169 26.8459 61.4917 23.9994 62.5497 21.4803C63.6077 18.9612 65.9001 16.8452 68.6207 16.5807C73.7596 16.0769 77.1477 21.6566 79.2134 26.3925C77.5886 18.6463 79.2134 10.283 83.6092 3.69561C84.9443 1.70554 86.9721 -0.322304 89.3401 0.0429621C91.9473 0.446014 93.2068 3.41852 93.7736 6.00057C95.2221 12.6761 95.1213 19.6666 93.5091 26.3043C92.6652 22.9162 95.0206 19.0998 98.3961 18.2559C101.772 17.3994 105.613 19.5406 106.747 22.8406C107.893 26.1406 106.281 30.1207 103.233 31.8085C103.585 28.6219 107.603 26.72 110.588 27.9165C113.574 29.1131 115.224 32.5516 115.06 35.7509C114.896 38.9627 113.233 41.91 111.168 44.3787C106.911 49.4924 100.714 53.0065 94.1137 53.7874C87.4886 54.5432 81.2287 51.4699 75.1073 48.0565Z" fill="#FBB18C"/>
</svg>
