<svg width="185" height="301" viewBox="0 0 185 301" fill="none" xmlns="http://www.w3.org/2000/svg">
<path d="M13.557 300.162C5.90447 263.952 23.4636 226.982 45.3012 197.966C67.1388 168.949 94.0158 143.666 110.297 110.816C123.621 83.9537 130.484 51.3623 153.527 33.3438" stroke="#56593E" stroke-width="2.7379" stroke-miterlimit="10"/>
<path d="M54.8632 185.231C59.8883 178.153 68.4884 174.936 76.8013 173.903C85.1143 172.883 93.542 173.673 101.855 172.754C124.597 170.242 145.53 153.932 154.575 131.678" stroke="#56593E" stroke-width="2.7379" stroke-miterlimit="10"/>
<path d="M32.5375 215.439C23.9087 201.627 24.3107 183.508 27.9862 167.399C31.6617 151.29 38.2087 135.999 41.0083 119.704C43.8224 103.408 42.2 84.9874 31.5181 72.8841" stroke="#56593E" stroke-width="2.7379" stroke-miterlimit="10"/>
<path d="M116.198 109.596C113.729 107.658 113.298 103.867 115.38 101.427C119.687 96.3584 125.545 92.7404 131.833 91.3764C135.265 90.6298 138.926 90.5437 142.156 91.9077C145.387 93.2573 148.129 96.2436 148.66 99.8904C149.12 103.049 147.885 106.337 145.817 108.72C143.75 111.103 140.936 112.625 138.036 113.573C130.785 115.913 122.645 114.65 116.198 109.596Z" fill="#97A864"/>
<path d="M113.958 101.053C113.686 104.341 110.9 106.753 107.885 106.179C101.625 104.973 95.7388 101.599 91.3885 96.6025C89.0195 93.8746 87.0669 90.6011 86.4782 86.9256C85.8896 83.2501 86.8372 79.1726 89.4646 76.7319C91.733 74.6213 94.9921 73.9896 97.9498 74.5926C100.907 75.1956 103.564 76.9329 105.818 79.0721C111.446 84.3987 114.647 92.4819 113.958 101.053Z" fill="#B6BF2E"/>
<path d="M92.3935 151.577C89.4789 150.529 87.9857 147.069 89.2636 144.054C91.9053 137.837 96.4279 132.496 102.042 129.151C105.1 127.327 108.546 126.064 112.02 126.308C115.495 126.552 118.955 128.505 120.52 131.807C121.869 134.664 121.639 138.21 120.347 141.125C119.07 144.054 116.83 146.423 114.332 148.26C108.1 152.869 99.9885 154.305 92.3935 151.577Z" fill="#97A864"/>
<path d="M89.1343 145.576C87.4689 148.705 83.7503 149.868 81.0942 147.959C75.5809 144.025 71.3455 138.11 69.3068 131.276C68.2013 127.557 67.7131 123.465 68.7181 119.589C69.7231 115.712 72.3793 112.094 75.9543 110.845C79.0555 109.754 82.4581 110.558 85.0425 112.453C87.6268 114.348 89.4502 117.234 90.7137 120.321C93.8436 128.045 93.4703 137.421 89.1343 145.576Z" fill="#B6BF2E"/>
<path d="M128.933 65.7628C121.611 64.485 115.408 57.8806 114.245 50.1276C113.843 47.4284 114.016 44.5856 115.15 42.1305C116.284 39.6898 118.481 37.7084 121.036 37.3495C123.477 37.0049 125.975 38.1535 127.727 39.9913C129.479 41.829 130.57 44.2698 131.245 46.7823C132.867 52.7694 132.293 59.3881 128.933 65.7628Z" fill="#97A864"/>
<path d="M152.063 135.511C155.25 129.38 160.247 124.341 166.176 121.269C169.335 119.632 172.881 118.541 176.356 119.129C179.83 119.732 183.132 122.345 183.879 125.992C184.554 129.323 182.946 132.855 180.49 135.052C178.021 137.248 174.834 138.311 171.675 138.928C165.071 140.192 158.208 139.703 152.063 135.511Z" fill="#97A864"/>
<path d="M33.6286 77.22C31.1017 70.1993 30.5418 62.4032 32.035 55.0522C32.5087 52.6976 33.2841 50.2568 35.0069 48.7062C36.7442 47.1413 39.2854 46.7536 41.4678 47.4571C43.6501 48.1606 45.4735 49.8692 46.6652 51.9223C49.8525 57.4355 48.4311 64.8152 45.1289 70.2567C42.8317 74.0614 39.6874 77.2775 33.6286 77.22Z" fill="#97A864"/>
<path d="M41.6544 116.976C41.3816 111.147 39.2998 105.432 35.8109 100.91C33.3128 97.6793 29.8813 94.9657 25.9474 94.6642C22.0135 94.3627 17.7493 97.1911 17.3043 101.34C17.0602 103.566 17.8929 105.763 18.941 107.701C23.2626 115.597 31.9631 120.565 41.6544 116.976Z" fill="#97A864"/>
<path d="M31.8196 148.433C35.05 142.316 38.5963 135.856 44.4972 132.683C47.9717 130.816 52.0779 130.299 55.8826 131.233C58.6249 131.907 61.3958 133.558 62.3721 136.358C63.4489 139.402 62.0706 142.862 60.0032 145.26C56.7297 149.064 51.8769 151.017 47.0528 151.62C42.2144 152.237 37.3328 151.606 31.8196 148.433Z" fill="#97A864"/>
<path d="M25.5454 194.936C22.4011 197.219 18.0796 196.918 14.6481 195.152C11.2167 193.386 8.53191 190.385 6.00501 187.356C3.57861 184.427 1.16655 181.268 0.290747 177.463C-0.585055 173.673 0.506107 169.093 3.72217 167.198C5.91885 165.906 8.67547 166.092 10.9727 167.155C13.2698 168.217 15.1794 170.041 16.8736 171.993C22.6165 178.54 26.6222 186.781 25.5454 194.936Z" fill="#97A864"/>
<path d="M149.766 35.5548C156.542 29.3955 166.234 27.0122 174.877 29.3955C177.849 30.2139 180.95 31.8219 182.142 34.8226C183.319 37.809 182.156 41.427 179.945 43.6668C177.734 45.9065 174.661 46.969 171.646 47.4428C167.224 48.1463 162.587 47.7443 158.495 45.8347C154.389 43.9539 150.886 40.4794 149.766 35.5548Z" fill="#97A864"/>
<path d="M35.3228 76.9042C32.3221 71.2617 26.292 67.5719 20.1757 67.6149C18.6395 67.6293 17.0745 67.8734 15.6962 68.6056C14.3179 69.3378 13.1406 70.6013 12.7242 72.1662C12.2792 73.8317 12.7386 75.6838 13.6718 77.1052C14.6051 78.5266 15.9834 79.5746 17.4335 80.3787C23.6646 83.8101 31.834 82.7333 35.3228 76.9042Z" fill="#B6BF2E"/>
<path d="M40.0895 116.861C40.1038 109.998 43.1476 103.221 48.1583 98.8853C49.8812 97.3921 51.8769 96.1574 54.0736 95.8128C56.2702 95.4683 58.6966 96.143 60.1324 97.9377C61.5538 99.7037 61.8122 102.302 61.1949 104.542C60.5775 106.768 59.1848 108.677 57.6055 110.314C53.2696 114.793 47.3112 117.492 40.0895 116.861Z" fill="#B6BF2E"/>
<path d="M32.839 152.568C29.867 150.471 26.694 148.662 23.8369 146.394C20.9798 144.125 18.3811 141.297 17.0315 137.78C15.6819 134.262 15.7824 129.983 17.9216 126.94C20.0609 123.91 24.4543 122.647 27.4406 124.743C28.8476 125.734 29.8096 127.284 30.6136 128.864C34.2747 135.985 35.6243 144.413 32.839 152.568Z" fill="#B6BF2E"/>
<path d="M23.923 195.898C23.5354 188.088 25.8469 180.148 30.3408 173.931C31.9345 171.735 33.844 169.71 36.213 168.547C38.5819 167.384 41.4965 167.227 43.7649 168.634C46.5359 170.356 47.7563 174.118 47.3112 177.492C46.8661 180.866 45.0284 183.867 42.8748 186.379C38.3666 191.634 32.2216 195.267 23.923 195.898Z" fill="#B6BF2E"/>
<path d="M126.679 67.6293C128.933 64.3414 131.202 61.0249 133.973 58.2108C136.744 55.3968 140.074 53.0852 143.822 52.1664C147.569 51.2475 151.747 51.8792 154.748 54.4061C157.763 56.933 159.313 61.4843 157.978 65.3034C156.743 68.864 153.341 71.1755 149.837 71.9796C146.334 72.7836 142.702 72.3385 139.141 71.8791C134.762 71.3191 130.369 70.7592 126.679 67.6293Z" fill="#B6BF2E"/>
<path d="M126.966 165.662C124.841 161.728 122.688 157.708 121.74 153.286C120.792 148.863 121.18 143.896 123.779 140.292C126.392 136.688 131.532 135.037 135.179 137.406C137.232 138.741 138.567 141.125 139.041 143.637C139.514 146.15 139.199 148.763 138.509 151.204C136.743 157.478 132.465 162.905 126.966 165.662Z" fill="#B6BF2E"/>
<path d="M92.6806 177.98C88.0145 174.692 84.9707 168.964 84.7266 163.034C84.4826 157.105 87.0669 151.118 91.4459 147.428C93.8436 145.418 97.074 144.039 99.9455 145.159C102.372 146.107 103.994 148.677 104.497 151.362C104.999 154.046 104.526 156.832 103.808 159.474C101.841 166.609 97.9498 173.127 92.6806 177.98Z" fill="#B6BF2E"/>
<path d="M151.058 39.2447C147.311 35.2964 145.358 29.697 144.97 24.112C144.583 18.527 145.659 12.9276 147.282 7.58661C148.215 4.51413 149.694 1.1545 152.594 0.221268C155.035 -0.554032 157.748 0.795557 159.328 2.90609C160.907 5.03099 161.539 7.77326 161.826 10.4581C163.003 20.9964 159.328 32.0086 151.058 39.2447Z" fill="#B6BF2E"/>
<path d="M152.824 138.555C149.507 137.808 146.621 135.511 144.511 132.697C142.4 129.869 141.008 126.538 139.83 123.164C138.38 118.986 137.232 114.477 138.064 110.113C138.897 105.748 142.271 101.642 146.463 101.513C149.306 101.427 152.005 103.135 153.771 105.504C155.537 107.873 156.456 110.816 157.045 113.76C158.811 122.489 157.748 131.836 152.824 138.555Z" fill="#B6BF2E"/>
<path d="M127.828 163.221C136.586 157.822 147.44 156.358 157.188 159.273C161.122 160.45 165.286 162.747 166.521 166.882C167.885 171.419 164.956 176.444 160.936 178.583C156.916 180.723 152.178 180.579 147.727 179.904C143.262 179.215 138.797 178.009 134.978 175.468C131.173 172.912 128.057 168.878 127.828 163.221Z" fill="#97A864"/>
<path d="M92.4222 174.233C98.2657 175.123 104.267 176.085 109.378 179.215C114.49 182.345 118.553 188.231 117.964 194.463C117.763 196.544 116.988 198.669 115.38 199.904C114.131 200.866 112.537 201.153 110.986 201.239C104.655 201.598 98.2369 198.784 94.0015 193.788C89.7804 188.791 87.8278 181.713 92.4222 174.233Z" fill="#97A864"/>
</svg>
