<svg width="121" height="285" viewBox="0 0 121 285" fill="none" xmlns="http://www.w3.org/2000/svg">
<path d="M97.1734 283.97C85.1849 246.281 125.673 207.186 115.594 168.881C109.621 146.153 88.0133 132.657 75.1922 113.375C58.1499 87.7327 57.8341 54.0502 58.1787 22.6936" stroke="#56593E" stroke-width="2.7379" stroke-miterlimit="10"/>
<path d="M105.328 225.42C103.017 212.053 93.4261 201.343 82.816 193.705C72.2202 186.067 60.2748 180.683 49.7221 172.973C39.1695 165.263 29.6792 154.394 27.5974 140.999" stroke="#56593E" stroke-width="2.7379" stroke-miterlimit="10"/>
<path d="M57.3459 31.1215C56.4271 21.0139 60.3323 10.5473 67.511 3.82804C70.4686 1.07142 74.6753 -1.13962 78.2503 0.640699C80.9926 2.00465 82.4139 5.43607 82.2847 8.63777C82.1555 11.8395 80.7628 14.8258 79.0974 17.5106C74.4312 25.0339 67.4679 30.9348 57.3459 31.1215Z" fill="#97A864"/>
<path d="M60.9353 75.2561C60.6194 65.2634 52.8233 56.1321 43.491 54.7825C40.6052 54.3661 37.5471 54.6389 34.9627 56.089C32.3928 57.5391 30.3683 60.2813 30.153 63.3682C29.8084 68.0774 33.4696 72.0113 37.1881 74.61C44.4099 79.6638 53.053 82.4205 60.9353 75.2561Z" fill="#97A864"/>
<path d="M75.063 115.672C72.3207 106.024 73.2109 95.2847 77.475 86.2826C79.5568 81.8893 82.9308 77.582 87.5252 77.0077C91.976 76.4478 96.3119 79.8361 98.0061 84.2295C99.7003 88.6229 99.0973 93.7054 97.3313 98.07C93.6127 107.23 85.429 113.318 75.063 115.672Z" fill="#97A864"/>
<path d="M107.324 154.107C103.921 150.245 100.461 146.34 96.1827 143.64C91.9042 140.941 86.5919 139.592 81.8684 141.257C77.1448 142.908 73.3975 148.134 74.2589 153.332C74.8045 156.619 77.0156 159.405 79.7435 161.085C82.457 162.764 85.6443 163.425 88.7743 163.655C96.0822 164.157 103.534 162.334 107.324 154.107Z" fill="#97A864"/>
<path d="M27.7266 146.167C25.6448 137.266 26.4057 127.632 29.8659 119.218C30.9139 116.692 32.2205 114.222 34.2161 112.427C36.1975 110.647 38.9541 109.642 41.4666 110.36C45.8744 111.638 47.6403 117.352 47.4967 122.205C47.1952 132.384 41.2656 142.147 27.7266 146.167Z" fill="#97A864"/>
<path d="M48.6166 171.077C43.9648 169.197 39.3274 167.316 34.6756 165.421C30.3396 163.669 24.9987 162.061 21.4381 165.205C18.5666 167.746 18.3081 172.628 20.1889 176.059C22.0698 179.476 25.616 181.558 29.2341 182.535C37.2886 184.703 46.3625 181.788 48.6166 171.077Z" fill="#97A864"/>
<path d="M80.7341 193.059C75.7664 187.072 74.0149 178.27 76.2977 170.661C77.1448 167.847 78.5518 165.133 80.7341 163.296C82.9164 161.458 85.9746 160.625 88.5876 161.63C92.0908 162.98 93.9429 167.115 94.4885 171.034C95.7232 179.792 91.9329 189.153 80.7341 193.059Z" fill="#B6BF2E"/>
<path d="M107.367 153.432C105.371 148.766 103.85 143.813 103.476 138.716C103.103 133.605 103.936 128.321 106.391 123.913C107.87 121.257 110.382 118.759 113.268 119.118C115.809 119.434 117.661 121.86 118.753 124.315C121.136 129.628 121.351 135.974 119.356 141.458C117.374 146.928 113.167 151.465 107.367 153.432Z" fill="#B6BF2E"/>
<path d="M77.1879 115.227C72.9524 109.958 67.0946 106.153 60.7343 104.56C57.4608 103.727 53.8858 103.511 50.8277 105.005C47.7695 106.498 45.4436 110.102 46.1471 113.59C46.6927 116.376 48.9181 118.429 51.2297 119.865C59.5857 125.033 70.8562 124.287 77.1879 115.227Z" fill="#B6BF2E"/>
<path d="M59.8011 76.3903C58.552 68.4507 60.6481 59.9942 65.4148 53.7343C68.0853 50.2311 71.9618 47.2591 76.2116 47.5319C81.7248 47.8909 85.8741 54.0502 85.5151 59.8937C85.1562 65.7371 81.1792 70.834 76.3408 73.6481C71.488 76.4765 65.8599 77.381 59.8011 76.3903Z" fill="#B6BF2E"/>
<path d="M31.2154 147.948C23.6347 150.79 14.9485 150.144 7.82722 146.196C4.72602 144.487 1.78276 141.989 0.562382 138.515C-1.04565 133.92 0.935674 128.407 4.71167 125.593C8.48767 122.779 13.6707 122.535 17.9492 124.387C22.2277 126.239 25.6161 129.987 27.784 134.308C29.952 138.615 31.0001 143.482 31.2154 147.948Z" fill="#B6BF2E"/>
<path d="M48.3151 173.174C46.2907 169.728 44.252 166.253 42.8593 162.463C41.4666 158.673 40.7201 154.538 41.3805 150.532C42.0409 146.526 44.252 142.707 47.6403 140.812C51.0287 138.917 55.5943 139.304 58.2935 142.19C60.2174 144.243 61.0071 147.273 60.8778 150.159C60.763 153.045 59.8154 155.83 58.6524 158.457C55.8815 164.731 51.8327 170.36 48.3151 173.174Z" fill="#B6BF2E"/>
<path d="M59.8585 33.2894C59.5713 27.7188 59.2842 22.0332 57.4177 16.8071C55.5513 11.581 51.8327 6.80003 46.7645 5.24943C41.6964 3.69883 35.4222 6.32624 33.8141 11.6385C32.5938 15.6873 34.2449 20.2098 37.0015 23.311C39.7437 26.3979 43.4336 28.3361 47.066 30.1595C50.7128 31.9685 54.8334 33.7776 59.8585 33.2894Z" fill="#B6BF2E"/>
</svg>
