<svg width="140" height="260" viewBox="0 0 140 260" fill="none" xmlns="http://www.w3.org/2000/svg">
<path d="M70.8469 45.7962C80.3911 53.6712 81.5895 67.424 74.6275 75.1564C67.6512 82.9031 54.2979 84.6864 42.471 80.9628C30.6442 77.2393 20.4437 68.7223 13.5388 58.9783C6.63388 49.2487 2.69635 38.3491 0 27.5495C9.90087 17.4774 21.0429 7.97598 35.3521 3.11114C49.6613 -1.7537 67.7368 -1.32571 82.2029 7.34826C92.1894 13.3401 100.079 24.525 97.1541 33.7411C94.0155 43.5992 80.9617 46.5951 70.8469 45.7962Z" fill="#98A763"/>
<path d="M48.2355 40.6318C74.2431 42.5721 98.9953 56.9669 113.319 78.4806C124.532 95.3149 129.283 115.502 132.55 135.403C139.269 176.277 140.61 218.006 136.516 259.222" stroke="#5B6101" stroke-width="1.6766" stroke-miterlimit="10"/>
</svg>
