<svg width="186" height="132" viewBox="0 0 186 132" fill="none" xmlns="http://www.w3.org/2000/svg">
<path d="M112.223 47.1998C100.125 49.3112 92.3786 63.1068 95.0036 74.9907C97.6287 86.8889 108.671 95.891 120.712 98.4732C132.738 101.055 145.421 98.0167 156.335 92.467C167.249 86.9174 176.679 78.971 186.009 71.096C185.367 56.8581 183.141 42.4206 176.779 29.6093C170.416 16.7981 159.445 5.69886 145.635 1.57588C131.825 -2.54711 115.262 1.47601 106.873 12.989C98.4847 24.502 100.881 43.1196 112.223 47.1998Z" fill="#98A763"/>
<path d="M132.296 46.2297C76.5716 44.7888 21.8886 79.984 0.774292 130.872" stroke="#5B6101" stroke-width="1.6766" stroke-miterlimit="10"/>
</svg>
