<svg width="168" height="160" viewBox="0 0 168 160" fill="none" xmlns="http://www.w3.org/2000/svg">
<path d="M77.2953 52.1084C88.5943 56.9304 92.9741 72.1241 87.6955 83.1092C82.4169 94.0943 69.6057 100.329 57.3081 100.1C45.0105 99.858 33.3548 94.0087 24.0103 86.1052C14.6659 78.2016 7.29013 68.315 0 58.514C3.88046 44.804 9.34448 31.2652 18.475 20.2373C27.6055 9.22361 40.8161 0.920578 55.2109 0.0645948C69.6057 -0.791388 84.7994 6.91245 90.3348 20.0518C95.8701 33.1911 89.2648 50.7388 77.2953 52.1084Z" fill="#98A763"/>
<path d="M57.964 46.5731C112.547 57.9291 157.715 104.68 166.631 159.049" stroke="#5B6101" stroke-width="1.6766" stroke-miterlimit="10"/>
</svg>
