<svg width="138" height="201" viewBox="0 0 138 201" fill="none" xmlns="http://www.w3.org/2000/svg">
<path d="M118.353 200.265C123.666 164.331 117.437 126.785 100.802 94.4972C84.1664 62.2095 57.219 35.3304 24.8767 18.7905" stroke="#5B6101" stroke-width="1.7493" stroke-miterlimit="10"/>
<path d="M114.733 131.347C110.458 123.261 103.124 116.855 94.5466 113.7C92.5252 112.949 90.3672 112.376 88.2229 112.635C86.0786 112.895 83.9479 114.11 83.1148 116.104C82.227 118.249 83.0465 120.789 84.5762 122.524C86.1059 124.258 88.2366 125.337 90.3536 126.266C97.8928 129.598 106.019 131.62 114.733 131.347Z" fill="#5B6101"/>
<path d="M112.903 131.374C113.436 122.25 117.438 113.373 123.939 106.94C125.468 105.424 127.189 104.003 129.252 103.334C131.314 102.678 133.759 102.897 135.343 104.372C137.037 105.943 137.365 108.606 136.682 110.819C135.999 113.031 134.524 114.902 132.98 116.623C127.476 122.783 120.934 128 112.903 131.374Z" fill="#5B6101"/>
<path d="M106.648 101.64C100.857 94.5655 92.3886 89.7442 83.3606 88.3511C81.23 88.0233 79.0037 87.8867 76.9413 88.5559C74.8926 89.2252 73.0351 90.8505 72.6254 92.9675C72.1883 95.2347 73.4858 97.5703 75.3297 98.9771C77.1735 100.37 79.4817 100.998 81.7353 101.49C89.7936 103.266 98.166 103.634 106.648 101.64Z" fill="#5B6101"/>
<path d="M105.992 102.993C102.1 94.7158 101.389 85.0049 104.039 76.25C104.667 74.1877 105.5 72.1116 106.989 70.5546C108.478 68.9976 110.745 68.0279 112.835 68.5605C115.075 69.1342 116.632 71.3195 117.096 73.5867C117.56 75.8539 117.137 78.2031 116.604 80.4567C114.706 88.4877 111.442 96.1908 105.992 102.993Z" fill="#5B6101"/>
<path d="M89.6023 76.5232C83.8113 69.4483 75.3433 64.627 66.3153 63.2339C64.1846 62.9061 61.9584 62.7695 59.896 63.4387C57.8473 64.108 55.9898 65.7333 55.58 67.8503C55.143 70.1175 56.4405 72.4531 58.2843 73.8599C60.1282 75.253 62.4364 75.8813 64.69 76.3729C72.7619 78.1485 81.1343 78.5173 89.6023 76.5232Z" fill="#5B6101"/>
<path d="M88.9604 77.8753C85.0679 69.5985 84.3576 59.8876 87.0073 51.1328C87.6356 49.0704 88.4687 46.9944 89.9575 45.4374C91.4462 43.8804 93.7134 42.9106 95.8031 43.4433C98.043 44.017 99.6001 46.2022 100.064 48.4695C100.529 50.7367 100.105 53.0859 99.5728 55.3395C97.6743 63.3705 94.41 71.0736 88.9604 77.8753Z" fill="#5B6101"/>
<path d="M72.4888 52.5532C65.6051 46.53 56.4679 43.1701 47.3306 43.2931C45.1726 43.3204 42.9464 43.5526 41.0342 44.5633C39.1221 45.5603 37.5651 47.4724 37.5104 49.6304C37.4421 51.9386 39.1221 54.0283 41.1708 55.1073C43.2195 56.1863 45.596 56.4185 47.9042 56.5278C56.1401 56.9238 64.4578 55.9131 72.4888 52.5532Z" fill="#5B6101"/>
<path d="M69.0469 53.3727C65.1544 45.0959 64.4441 35.385 67.0938 26.6302C67.7221 24.5678 68.5552 22.4918 70.0439 20.9348C71.5327 19.3778 73.7999 18.408 75.8896 18.9407C78.1295 19.5143 79.6866 21.6996 80.1509 23.9669C80.6153 26.2341 80.1919 28.5833 79.6592 30.8369C77.7608 38.8678 74.4965 46.571 69.0469 53.3727Z" fill="#5B6101"/>
<path d="M48.5871 33.4456C40.242 29.7033 30.5175 29.157 21.8173 31.9432C19.7549 32.5988 17.7062 33.4729 16.1765 34.9889C14.6468 36.505 13.7044 38.7859 14.2917 40.8756C14.9063 43.1018 17.1189 44.6179 19.3861 45.0413C21.667 45.4647 24.0026 45.0003 26.2425 44.4403C34.2325 42.4053 41.8947 39.0181 48.5871 33.4456Z" fill="#5B6101"/>
<path d="M47.1531 34.5792C43.2605 26.3024 42.5503 16.5915 45.1999 7.83669C45.8282 5.77432 46.6614 3.69829 48.1501 2.14127C49.6388 0.58425 51.9061 -0.385462 53.9957 0.147203C56.2357 0.720843 57.7927 2.90613 58.2571 5.17337C58.7215 7.44061 58.2981 9.7898 57.7654 12.0434C55.8669 20.0743 52.6026 27.7775 47.1531 34.5792Z" fill="#5B6101"/>
<path d="M31.3506 20.7572C27.8405 12.2209 19.2496 6.02017 10.0577 5.36458C7.968 5.21434 5.79637 5.35093 3.8979 6.21139C1.98576 7.08551 0.374114 8.79276 0.0599782 10.8688C-0.418055 14.0101 2.0404 16.8101 4.62177 18.6539C12.1884 24.0488 22.5139 25.3054 31.3506 20.7572Z" fill="#5B6101"/>
</svg>
