<svg width="62" height="246" viewBox="0 0 62 246" fill="none" xmlns="http://www.w3.org/2000/svg">
<path d="M22.3508 165.063C26.6258 156.977 33.9602 150.571 42.5375 147.416C44.5589 146.665 46.7169 146.092 48.8612 146.351C51.0055 146.597 53.1362 147.826 53.9693 149.82C54.8571 151.965 54.0376 154.505 52.5079 156.24C50.9782 157.974 48.8475 159.053 46.7305 159.982C39.1776 163.301 31.051 165.336 22.3508 165.063Z" fill="#5B6101"/>
<path d="M24.1811 165.076C23.6484 155.953 19.6466 147.075 13.1453 140.642C11.6156 139.126 9.89471 137.706 7.83234 137.036C5.76997 136.381 3.32517 136.599 1.74083 138.074C0.0472289 139.645 -0.280559 142.308 0.402345 144.521C1.08525 146.734 2.56031 148.605 4.10367 150.326C9.59422 156.499 16.1501 161.716 24.1811 165.076Z" fill="#5B6101"/>
<path d="M34.9436 56.0575C36.5962 47.0705 41.677 38.7527 48.9158 33.1666C50.6231 31.8417 52.5079 30.6535 54.6386 30.2574C56.7556 29.8613 59.1731 30.3803 60.5525 32.0466C62.0413 33.8221 62.0276 36.4991 61.0852 38.6161C60.1428 40.7331 58.4355 42.3994 56.6873 43.9155C50.4728 49.3377 43.3433 53.6947 34.9436 56.0575Z" fill="#5B6101"/>
<path d="M36.1728 56.918C35.5855 47.7944 31.5017 38.944 24.9732 32.552C23.4298 31.0496 21.6952 29.6428 19.6329 28.9872C17.5705 28.3453 15.1257 28.5911 13.555 30.0662C11.8751 31.6505 11.5746 34.3139 12.2575 36.5265C12.9404 38.7391 14.4565 40.5829 15.9998 42.3038C21.5313 48.4227 28.1145 53.5991 36.1728 56.918Z" fill="#5B6101"/>
<path d="M25.3011 140.451C25.9703 131.341 30.1224 122.518 36.7192 116.194C38.2762 114.705 40.0245 113.312 42.0868 112.684C44.1492 112.056 46.6077 112.329 48.1647 113.818C49.831 115.416 50.1178 118.079 49.4076 120.291C48.6974 122.49 47.1813 124.334 45.6106 126.042C40.0108 132.092 33.3866 137.2 25.3011 140.451Z" fill="#5B6101"/>
<path d="M26.6122 141.175C25.0415 132.174 20.0427 123.802 12.8449 118.161C11.1513 116.822 9.26644 115.62 7.14944 115.197C5.03244 114.774 2.61494 115.279 1.22182 116.932C-0.28057 118.693 -0.294211 121.37 0.620881 123.487C1.53597 125.604 3.24322 127.284 4.96414 128.828C11.1376 134.318 18.2398 138.744 26.6122 141.175Z" fill="#5B6101"/>
<path d="M25.342 114.623C27.3224 105.705 32.69 97.5781 40.1337 92.2651C41.8956 91.0085 43.8214 89.8886 45.952 89.5608C48.0827 89.233 50.4729 89.8476 51.7977 91.5549C53.2181 93.3851 53.1089 96.0484 52.0982 98.1381C51.0875 100.214 49.3119 101.812 47.509 103.274C41.1034 108.477 33.81 112.575 25.342 114.623Z" fill="#5B6101"/>
<path d="M28.6063 113.244C26.8444 104.271 21.6543 96.0211 14.3472 90.5305C12.6263 89.233 10.7142 88.0584 8.5972 87.6896C6.46654 87.3209 4.07638 87.8809 2.71057 89.5471C1.24916 91.3364 1.29013 94.0133 2.25985 96.1167C3.22958 98.22 4.96414 99.859 6.72603 101.361C12.9814 106.715 20.1792 111.004 28.6063 113.244Z" fill="#5B6101"/>
<path d="M28.1419 79.1534C33.5095 71.7507 41.6771 66.4377 50.6095 64.5256C52.7265 64.0748 54.9391 63.8017 57.0287 64.3617C59.1184 64.908 61.0579 66.424 61.5905 68.5137C62.1642 70.7536 61.0032 73.1711 59.2413 74.6735C57.4795 76.1759 55.2259 76.9408 52.986 77.569C45.0506 79.7816 36.7192 80.6421 28.1419 79.1534Z" fill="#5B6101"/>
<path d="M32.4579 80.7786C31.7067 71.6687 27.4863 62.8865 20.8485 56.6175C19.2778 55.1287 17.5159 53.7629 15.4535 53.1483C13.3775 52.5337 10.9327 52.8205 9.38937 54.3366C7.73675 55.9482 7.47723 58.6116 8.20111 60.8105C8.92498 63.0095 10.4683 64.8396 12.039 66.5196C17.6798 72.5428 24.3586 77.5963 32.4579 80.7786Z" fill="#5B6101"/>
<path d="M39.4372 31.5822C34.7251 23.6469 34.93 13.0482 39.9425 5.30408C41.0761 3.54219 42.4829 1.88956 44.3268 0.892518C46.1706 -0.104522 48.5062 -0.364021 50.35 0.619361C53.1499 2.12175 53.9147 5.78211 53.8328 8.95079C53.587 18.2519 48.3969 27.2663 39.4372 31.5822Z" fill="#5B6101"/>
<path d="M28.8931 244.867C20.029 171.701 24.0171 96.9908 40.6254 25.1766" stroke="#5B6101" stroke-width="2.5767" stroke-miterlimit="10"/>
</svg>
