<svg width="138" height="201" viewBox="0 0 138 201" fill="none" xmlns="http://www.w3.org/2000/svg">
<path d="M18.6626 200.279C13.3497 164.345 19.5777 126.799 36.2132 94.5109C52.8488 62.2232 79.7962 35.3441 112.139 18.8042" stroke="#5B6101" stroke-width="1.7493" stroke-miterlimit="10"/>
<path d="M22.282 131.36C26.557 123.275 33.8914 116.869 42.4687 113.714C44.4901 112.963 46.648 112.389 48.7924 112.649C50.9367 112.895 53.0673 114.124 53.9005 116.118C54.7882 118.262 53.9687 120.803 52.439 122.537C50.9093 124.272 48.7787 125.351 46.6617 126.28C39.1224 129.599 30.9959 131.634 22.282 131.36Z" fill="#5B6101"/>
<path d="M24.1122 131.388C23.5795 122.264 19.5777 113.386 13.0765 106.953C11.5467 105.437 9.82583 104.017 7.76346 103.348C5.70109 102.678 3.25631 102.911 1.67197 104.386C-0.0216335 105.956 -0.349442 108.62 0.333462 110.832C1.00271 113.045 2.49145 114.916 4.03481 116.637C9.53902 122.797 16.0812 128.014 24.1122 131.388Z" fill="#5B6101"/>
<path d="M30.3676 101.654C36.1586 94.5792 44.6266 89.7579 53.6546 88.3648C55.7853 88.037 58.0115 87.9004 60.0739 88.5696C62.1363 89.2389 63.9801 90.8642 64.3899 92.9812C64.8269 95.2484 63.5294 97.584 61.6856 98.9907C59.8418 100.384 57.5335 101.012 55.28 101.504C47.2217 103.266 38.8493 103.648 30.3676 101.654Z" fill="#5B6101"/>
<path d="M31.0232 102.993C34.9158 94.7158 35.626 85.0049 32.9763 76.25C32.348 74.1877 31.5149 72.1116 30.0262 70.5546C28.5374 68.9976 26.2702 68.0279 24.1805 68.5605C21.9406 69.1342 20.3836 71.3195 19.9192 73.5867C19.4548 75.854 19.8782 78.2031 20.4109 80.4567C22.3094 88.4877 25.5736 96.1908 31.0232 102.993Z" fill="#5B6101"/>
<path d="M47.4128 76.5368C53.2039 69.462 61.6719 64.6407 70.6999 63.2475C72.8305 62.9197 75.0568 62.7832 77.1192 63.4524C79.1815 64.1217 81.0254 65.747 81.4351 67.864C81.8722 70.1312 80.5747 72.4667 78.7308 73.8735C76.887 75.2666 74.5788 75.8949 72.3252 76.3866C64.2532 78.1485 55.8809 78.5309 47.4128 76.5368Z" fill="#5B6101"/>
<path d="M48.0548 77.8754C51.9474 69.5986 52.6576 59.8877 50.0079 51.1328C49.3796 49.0705 48.5465 46.9944 47.0578 45.4374C45.569 43.8804 43.3018 42.9107 41.2121 43.4433C38.9722 44.017 37.4152 46.2023 36.9508 48.4695C36.4864 50.7368 36.9098 53.0859 37.4425 55.3395C39.341 63.3705 42.6052 71.0873 48.0548 77.8754Z" fill="#5B6101"/>
<path d="M64.5265 52.5532C71.4102 46.53 80.5474 43.1701 89.6847 43.2931C91.8427 43.3204 94.0689 43.5526 95.9811 44.5633C97.8932 45.5603 99.4502 47.4724 99.5049 49.6304C99.5732 51.9386 97.8932 54.0283 95.8445 55.1073C93.7957 56.1863 91.4193 56.4185 89.111 56.5277C80.8752 56.9375 72.5574 55.9268 64.5265 52.5532Z" fill="#5B6101"/>
<path d="M67.9683 53.3728C71.8608 45.096 72.5711 35.3851 69.9214 26.6302C69.2932 24.5679 68.46 22.4918 66.9713 20.9348C65.4825 19.3778 63.2153 18.4081 61.1256 18.9407C58.8857 19.5144 57.3287 21.6997 56.8643 23.9669C56.3999 26.2341 56.8233 28.5833 57.356 30.8369C59.2544 38.8679 62.5187 46.5847 67.9683 53.3728Z" fill="#5B6101"/>
<path d="M88.4281 33.4456C96.7732 29.7033 106.498 29.157 115.198 31.9432C117.26 32.5988 119.309 33.4729 120.839 34.989C122.368 36.505 123.311 38.7859 122.724 40.8756C122.109 43.1019 119.896 44.6179 117.629 45.0413C115.348 45.4647 113.013 45.0003 110.773 44.4404C102.783 42.419 95.1205 39.0181 88.4281 33.4456Z" fill="#5B6101"/>
<path d="M89.8622 34.5792C93.7547 26.3024 94.465 16.5915 91.8153 7.83671C91.187 5.77434 90.3539 3.69829 88.8651 2.14127C87.3764 0.58425 85.1092 -0.385462 83.0195 0.147203C80.7796 0.720843 79.2225 2.90613 78.7582 5.17337C78.2938 7.44061 78.7172 9.7898 79.2498 12.0434C81.1483 20.0743 84.4126 27.7911 89.8622 34.5792Z" fill="#5B6101"/>
<path d="M105.665 20.7572C109.175 12.2209 117.766 6.02014 126.957 5.36455C129.047 5.21431 131.219 5.3509 133.117 6.21136C135.029 7.08548 136.641 8.79275 136.955 10.8688C137.433 14.0101 134.975 16.81 132.393 18.6539C124.827 24.0488 114.501 25.319 105.665 20.7572Z" fill="#5B6101"/>
</svg>
